# xmcd
#
# Track frame offsets: 
#        150
#        20624
#        38573
#        59695
#        79514
#        101138
#        122417
#        137772
#        158284
#        178446
#        201065
#        223049
#        242114
#        261793
#
# Disc length: 3736 seconds
#
# Revision: 0
# Processed by: cddbd v1.5.2PL0 Copyright (c) Steve Scherf et al.
# Submitted via: ExactAudioCopyFreeDBPlugin 1.0
#
DISCID=c00e960e
DTITLE=Whitney Houston - Live in Concert
DYEAR=2001
DGENRE=Pop
TTITLE0=When you believe (Duet with Mariah Carey)
TTITLE1=I believe in you and me
TTITLE2=Where do broken hearts go
TTITLE3=How will I know
TTITLE4=Have nothing
TTITLE5=I'm every woman
TTITLE6=Exhale (Shoop shoop)
TTITLE7=Step by step (Teddy Riley remix)
TTITLE8=I will always love you
TTITLE9=Didn't we almost have it all
TTITLE10=Greatest love of all
TTITLE11=My heart is calling
TTITLE12=I wanna dance with somebody
TTITLE13=I'm your baby tonight
EXTD=
EXTT0=
EXTT1=
EXTT2=
EXTT3=
EXTT4=
EXTT5=
EXTT6=
EXTT7=
EXTT8=
EXTT9=
EXTT10=
EXTT11=
EXTT12=
EXTT13=
PLAYORDER=
